{
  "accessors": [
    {
      "bufferView": 2,
      "componentType": 5126,
      "count": 33853,
      "max": [
        0.79863488674163818,
        4.4142050743103027,
        -1.9959703683853149
      ],
      "min": [
        -0.79639959335327148,
        2.2553329467773438,
        -4.2252869606018066
      ],
      "type": "VEC3"
    },
    {
      "bufferView": 2,
      "byteOffset": 406236,
      "componentType": 5126,
      "count": 33853,
      "max": [
        0.99998593330383301,
        0.9999842643737793,
        0.99687433242797852
      ],
      "min": [
        -0.99987375736236572,
        -0.99803876876831055,
        -0.99977123737335205
      ],
      "type": "VEC3"
    },
    {
      "bufferView": 0,
      "componentType": 5125,
      "count": 50775,
      "max": [
        33852
      ],
      "min": [
        0
      ],
      "type": "SCALAR"
    },
    {
      "bufferView": 2,
      "byteOffset": 812472,
      "componentType": 5126,
      "count": 3065,
      "max": [
        1.0357811450958252,
        5.4770364761352539,
        -2.08705735206604
      ],
      "min": [
        -0.98070365190505981,
        2.3237919807434082,
        -4.5335111618041992
      ],
      "type": "VEC3"
    },
    {
      "bufferView": 2,
      "byteOffset": 849252,
      "componentType": 5126,
      "count": 3065,
      "max": [
        0.9999731183052063,
        0.99829739332199097,
        0.99939650297164917
      ],
      "min": [
        -0.99806559085845947,
        -0.99961686134338379,
        -0.99994051456451416
      ],
      "type": "VEC3"
    },
    {
      "bufferView": 0,
      "byteOffset": 203100,
      "componentType": 5125,
      "count": 18348,
      "max": [
        3064
      ],
      "min": [
        0
      ],
      "type": "SCALAR"
    },
    {
      "bufferView": 2,
      "byteOffset": 886032,
      "componentType": 5126,
      "count": 3065,
      "max": [
        1.33780837059021,
        6.3579545021057129,
        -1.9604225158691406
      ],
      "min": [
        -1.2827308177947998,
        2.2162599563598633,
        -4.9734950065612793
      ],
      "type": "VEC3"
    },
    {
      "bufferView": 2,
      "byteOffset": 922812,
      "componentType": 5126,
      "count": 3065,
      "max": [
        0.9999731183052063,
        0.99987608194351196,
        0.99982678890228271
      ],
      "min": [
        -0.99806565046310425,
        -0.99799203872680664,
        -0.99996614456176758
      ],
      "type": "VEC3"
    },
    {
      "bufferView": 0,
      "byteOffset": 276492,
      "componentType": 5125,
      "count": 18348,
      "max": [
        3064
      ],
      "min": [
        0
      ],
      "type": "SCALAR"
    },
    {
      "bufferView": 2,
      "byteOffset": 959592,
      "componentType": 5126,
      "count": 3050,
      "max": [
        0.34434521198272705,
        4.0536212921142578,
        7.7110633850097656
      ],
      "min": [
        -0.18489624559879303,
        0.098711252212524414,
        -4.3439478874206543
      ],
      "type": "VEC3"
    },
    {
      "bufferView": 2,
      "byteOffset": 996192,
      "componentType": 5126,
      "count": 3050,
      "max": [
        0.99987637996673584,
        0.99997282028198242,
        0.99987441301345825
      ],
      "min": [
        -0.99995023012161255,
        -0.99983519315719604,
        -0.99998027086257935
      ],
      "type": "VEC3"
    },
    {
      "bufferView": 0,
      "byteOffset": 349884,
      "componentType": 5125,
      "count": 18288,
      "max": [
        3049
      ],
      "min": [
        0
      ],
      "type": "SCALAR"
    },
    {
      "bufferView": 2,
      "byteOffset": 1032792,
      "componentType": 5126,
      "count": 60033,
      "max": [
        0.83016300201416016,
        4.4664692878723145,
        -2.8002579212188721
      ],
      "min": [
        -0.81345009803771973,
        2.859673023223877,
        -4.2619996070861816
      ],
      "type": "VEC3"
    },
    {
      "bufferView": 2,
      "byteOffset": 1753188,
      "componentType": 5126,
      "count": 60033,
      "max": [
        0.99998879432678223,
        0.99614852666854858,
        0.99917393922805786
      ],
      "min": [
        -0.99998879432678223,
        -0.99974942207336426,
        -0.99917393922805786
      ],
      "type": "VEC3"
    },
    {
      "bufferView": 0,
      "byteOffset": 423036,
      "componentType": 5125,
      "count": 87117,
      "max": [
        60032
      ],
      "min": [
        0
      ],
      "type": "SCALAR"
    },
    {
      "bufferView": 2,
      "byteOffset": 2473584,
      "componentType": 5126,
      "count": 4,
      "max": [
        3.75,
        7.1738653182983398,
        -4.1339492797851562
      ],
      "min": [
        -3.75,
        -0.32613468170166016,
        -4.1339492797851562
      ],
      "type": "VEC3"
    },
    {
      "bufferView": 2,
      "byteOffset": 2473632,
      "componentType": 5126,
      "count": 4,
      "max": [
        0,
        0,
        1
      ],
      "min": [
        0,
        0,
        1
      ],
      "type": "VEC3"
    },
    {
      "bufferView": 3,
      "componentType": 5126,
      "count": 4,
      "max": [
        0,
        1,
        0,
        1
      ],
      "min": [
        0,
        1,
        0,
        1
      ],
      "type": "VEC4"
    },
    {
      "bufferView": 1,
      "componentType": 5126,
      "count": 4,
      "max": [
        0.96506547927856445,
        0.96506547927856445
      ],
      "min": [
        0.034934490919113159,
        0.034934490919113159
      ],
      "type": "VEC2"
    },
    {
      "bufferView": 1,
      "byteOffset": 32,
      "componentType": 5126,
      "count": 4,
      "max": [
        0.96506547927856445,
        0.96506547927856445
      ],
      "min": [
        0.034934490919113159,
        0.034934490919113159
      ],
      "type": "VEC2"
    },
    {
      "bufferView": 0,
      "byteOffset": 771504,
      "componentType": 5125,
      "count": 6,
      "max": [
        3
      ],
      "min": [
        0
      ],
      "type": "SCALAR"
    },
    {
      "bufferView": 2,
      "byteOffset": 2473680,
      "componentType": 5126,
      "count": 4,
      "max": [
        0,
        7.1738653182983398,
        -0.38394951820373535
      ],
      "min": [
        0,
        -0.32613468170166016,
        -7.8839497566223145
      ],
      "type": "VEC3"
    },
    {
      "bufferView": 2,
      "byteOffset": 2473728,
      "componentType": 5126,
      "count": 4,
      "max": [
        -1,
        0,
        0
      ],
      "min": [
        -1,
        0,
        0
      ],
      "type": "VEC3"
    },
    {
      "bufferView": 3,
      "byteOffset": 64,
      "componentType": 5126,
      "count": 4,
      "max": [
        0,
        1,
        0,
        1
      ],
      "min": [
        0,
        1,
        0,
        1
      ],
      "type": "VEC4"
    },
    {
      "bufferView": 1,
      "byteOffset": 64,
      "componentType": 5126,
      "count": 4,
      "max": [
        0.96506547927856445,
        0.96506547927856445
      ],
      "min": [
        0.034934490919113159,
        0.034934490919113159
      ],
      "type": "VEC2"
    },
    {
      "bufferView": 1,
      "byteOffset": 96,
      "componentType": 5126,
      "count": 4,
      "max": [
        0.96506547927856445,
        0.96506547927856445
      ],
      "min": [
        0.034934490919113159,
        0.034934490919113159
      ],
      "type": "VEC2"
    },
    {
      "bufferView": 0,
      "byteOffset": 771528,
      "componentType": 5125,
      "count": 6,
      "max": [
        3
      ],
      "min": [
        0
      ],
      "type": "SCALAR"
    },
    {
      "bufferView": 2,
      "byteOffset": 2473776,
      "componentType": 5126,
      "count": 4,
      "max": [
        3.75,
        3.4238653182983398,
        -0.38394951820373535
      ],
      "min": [
        -3.75,
        3.4238653182983398,
        -7.8839497566223145
      ],
      "type": "VEC3"
    },
    {
      "bufferView": 2,
      "byteOffset": 2473824,
      "componentType": 5126,
      "count": 4,
      "max": [
        0,
        1,
        0
      ],
      "min": [
        0,
        1,
        0
      ],
      "type": "VEC3"
    },
    {
      "bufferView": 3,
      "byteOffset": 128,
      "componentType": 5126,
      "count": 4,
      "max": [
        1,
        0,
        0,
        1
      ],
      "min": [
        1,
        0,
        0,
        1
      ],
      "type": "VEC4"
    },
    {
      "bufferView": 1,
      "byteOffset": 128,
      "componentType": 5126,
      "count": 4,
      "max": [
        0.96506547927856445,
        0.96506547927856445
      ],
      "min": [
        0.034934490919113159,
        0.034934490919113159
      ],
      "type": "VEC2"
    },
    {
      "bufferView": 1,
      "byteOffset": 160,
      "componentType": 5126,
      "count": 4,
      "max": [
        0.96506547927856445,
        0.96506547927856445
      ],
      "min": [
        0.034934490919113159,
        0.034934490919113159
      ],
      "type": "VEC2"
    },
    {
      "bufferView": 0,
      "byteOffset": 771552,
      "componentType": 5125,
      "count": 6,
      "max": [
        3
      ],
      "min": [
        0
      ],
      "type": "SCALAR"
    }
  ],
  "asset": {
    "extras": {
      "author": "MMKH (https://sketchfab.com/mmkh)",
      "license": "CC-BY-4.0 (http://creativecommons.org/licenses/by/4.0/)",
      "source": "https://sketchfab.com/3d-models/marshmallow-day-13-3dinktober2019-ash-d19eef3bebfa4de9a6be1719a8a8909c",
      "title": "Marshmallow - Day 13 #3DInktober2019-Ash"
    },
    "generator": "Sketchfab-6.49.1",
    "version": "2.0"
  },
  "bufferViews": [
    {
      "buffer": 0,
      "byteLength": 771576,
      "byteOffset": 0,
      "name": "floatBufferViews",
      "target": 34963
    },
    {
      "buffer": 0,
      "byteLength": 192,
      "byteOffset": 771576,
      "byteStride": 8,
      "name": "floatBufferViews",
      "target": 34962
    },
    {
      "buffer": 0,
      "byteLength": 2473872,
      "byteOffset": 771768,
      "byteStride": 12,
      "name": "floatBufferViews",
      "target": 34962
    },
    {
      "buffer": 0,
      "byteLength": 192,
      "byteOffset": 3245640,
      "byteStride": 16,
      "name": "floatBufferViews",
      "target": 34962
    }
  ],
  "buffers": [
    {
      "byteLength": 3245832,
      "uri": "scene.bin"
    }
  ],
  "images": [
    {
      "uri": "textures/ash_particles1_baseColor.png"
    }
  ],
  "materials": [
    {
      "doubleSided": true,
      "emissiveFactor": [
        0,
        0,
        0
      ],
      "name": "marshmallow1",
      "pbrMetallicRoughness": {
        "baseColorFactor": [
          0.70489520000000006,
          0.70489520000000006,
          0.70489520000000006,
          1
        ],
        "metallicFactor": 0,
        "roughnessFactor": 0.59999999999999998
      }
    },
    {
      "alphaMode": "BLEND",
      "doubleSided": true,
      "emissiveFactor": [
        0.090909100000000007,
        0.090909100000000007,
        0.090909100000000007
      ],
      "name": "innerflame",
      "pbrMetallicRoughness": {
        "baseColorFactor": [
          0.80000000000000004,
          0.80000000000000004,
          0.80000000000000004,
          0.47348012864214817
        ],
        "metallicFactor": 0,
        "roughnessFactor": 0.59999999999999998
      }
    },
    {
      "alphaMode": "BLEND",
      "doubleSided": true,
      "emissiveFactor": [
        0.069930099999999995,
        0.069930099999999995,
        0.069930099999999995
      ],
      "name": "flame",
      "pbrMetallicRoughness": {
        "baseColorFactor": [
          0.38601360000000001,
          0.38601360000000001,
          0.38601360000000001,
          0.22819710977422367
        ],
        "metallicFactor": 0,
        "roughnessFactor": 0.59999999999999998
      }
    },
    {
      "doubleSided": true,
      "emissiveFactor": [
        0,
        0,
        0
      ],
      "name": "stick",
      "pbrMetallicRoughness": {
        "baseColorFactor": [
          0.050349680000000001,
          0.050349680000000001,
          0.050349680000000001,
          1
        ],
        "metallicFactor": 0,
        "roughnessFactor": 0.59999999999999998
      }
    },
    {
      "alphaMode": "BLEND",
      "doubleSided": true,
      "emissiveFactor": [
        0,
        0,
        0
      ],
      "name": "ash_on_marshmallow",
      "pbrMetallicRoughness": {
        "baseColorFactor": [
          0.016783200000000002,
          0.016783200000000002,
          0.016783200000000002,
          0.76278830474277715
        ],
        "metallicFactor": 0,
        "roughnessFactor": 0.59999999999999998
      }
    },
    {
      "alphaCutoff": 0.79423484562328028,
      "alphaMode": "MASK",
      "doubleSided": true,
      "emissiveFactor": [
        0,
        0,
        0
      ],
      "name": "ash_particles1",
      "pbrMetallicRoughness": {
        "baseColorFactor": [
          0.80000000000000004,
          0.80000000000000004,
          0.80000000000000004,
          1
        ],
        "baseColorTexture": {
          "index": 0,
          "texCoord": 0
        },
        "metallicFactor": 0,
        "roughnessFactor": 0.59999999999999998
      }
    }
  ],
  "meshes": [
    {
      "name": "marshmallow_marshmallow1_0",
      "primitives": [
        {
          "attributes": {
            "NORMAL": 1,
            "POSITION": 0
          },
          "indices": 2,
          "material": 0,
          "mode": 4
        }
      ]
    },
    {
      "name": "innerflame1_innerflame_0",
      "primitives": [
        {
          "attributes": {
            "NORMAL": 4,
            "POSITION": 3
          },
          "indices": 5,
          "material": 1,
          "mode": 4
        }
      ]
    },
    {
      "name": "flame1_flame_0",
      "primitives": [
        {
          "attributes": {
            "NORMAL": 7,
            "POSITION": 6
          },
          "indices": 8,
          "material": 2,
          "mode": 4
        }
      ]
    },
    {
      "name": "stick1_stick_0",
      "primitives": [
        {
          "attributes": {
            "NORMAL": 10,
            "POSITION": 9
          },
          "indices": 11,
          "material": 3,
          "mode": 4
        }
      ]
    },
    {
      "name": "ash_ash_on_marshmallow_0",
      "primitives": [
        {
          "attributes": {
            "NORMAL": 13,
            "POSITION": 12
          },
          "indices": 14,
          "material": 4,
          "mode": 4
        }
      ]
    },
    {
      "name": "pPlane3_ash_particles1_0",
      "primitives": [
        {
          "attributes": {
            "NORMAL": 16,
            "POSITION": 15,
            "TANGENT": 17,
            "TEXCOORD_0": 18,
            "TEXCOORD_1": 19
          },
          "indices": 20,
          "material": 5,
          "mode": 4
        }
      ]
    },
    {
      "name": "pPlane2_ash_particles1_0",
      "primitives": [
        {
          "attributes": {
            "NORMAL": 22,
            "POSITION": 21,
            "TANGENT": 23,
            "TEXCOORD_0": 24,
            "TEXCOORD_1": 25
          },
          "indices": 26,
          "material": 5,
          "mode": 4
        }
      ]
    },
    {
      "name": "pPlane1_ash_particles1_0",
      "primitives": [
        {
          "attributes": {
            "NORMAL": 28,
            "POSITION": 27,
            "TANGENT": 29,
            "TEXCOORD_0": 30,
            "TEXCOORD_1": 31
          },
          "indices": 32,
          "material": 5,
          "mode": 4
        }
      ]
    }
  ],
  "nodes": [
    {
      "children": [
        1
      ],
      "name": "RootNode (gltf orientation matrix)",
      "rotation": [
        -0.70710678118654746,
        -0,
        -0,
        0.70710678118654757
      ]
    },
    {
      "children": [
        2
      ],
      "name": "RootNode (model correction matrix)"
    },
    {
      "children": [
        3
      ],
      "matrix": [
        1,
        0,
        0,
        0,
        0,
        0,
        1,
        0,
        0,
        -1,
        0,
        0,
        0,
        0,
        0,
        1
      ],
      "name": "4dd4c0b4aec24ffc9d0cdfe544feb23a.fbx"
    },
    {
      "children": [
        4
      ],
      "name": "RootNode"
    },
    {
      "children": [
        5,
        16
      ],
      "name": "ash"
    },
    {
      "children": [
        6,
        8,
        10,
        12,
        14
      ],
      "name": "marshmallow_on_a_stick"
    },
    {
      "children": [
        7
      ],
      "name": "marshmallow"
    },
    {
      "mesh": 0,
      "name": "marshmallow_marshmallow1_0"
    },
    {
      "children": [
        9
      ],
      "name": "innerflame1"
    },
    {
      "mesh": 1,
      "name": "innerflame1_innerflame_0"
    },
    {
      "children": [
        11
      ],
      "name": "flame1"
    },
    {
      "mesh": 2,
      "name": "flame1_flame_0"
    },
    {
      "children": [
        13
      ],
      "name": "stick1"
    },
    {
      "mesh": 3,
      "name": "stick1_stick_0"
    },
    {
      "children": [
        15
      ],
      "name": "ash"
    },
    {
      "mesh": 4,
      "name": "ash_ash_on_marshmallow_0"
    },
    {
      "children": [
        17,
        19,
        21
      ],
      "name": "ash_particles"
    },
    {
      "children": [
        18
      ],
      "name": "pPlane3"
    },
    {
      "mesh": 5,
      "name": "pPlane3_ash_particles1_0"
    },
    {
      "children": [
        20
      ],
      "name": "pPlane2"
    },
    {
      "mesh": 6,
      "name": "pPlane2_ash_particles1_0"
    },
    {
      "children": [
        22
      ],
      "name": "pPlane1"
    },
    {
      "mesh": 7,
      "name": "pPlane1_ash_particles1_0"
    }
  ],
  "samplers": [
    {
      "magFilter": 9729,
      "minFilter": 9987,
      "wrapS": 10497,
      "wrapT": 10497
    }
  ],
  "scene": 0,
  "scenes": [
    {
      "name": "OSG_Scene",
      "nodes": [
        0
      ]
    }
  ],
  "textures": [
    {
      "sampler": 0,
      "source": 0
    }
  ]
}

