<svg xmlns="http://www.w3.org/2000/svg" width="39.603" height="35.893" viewBox="0 0 39.603 35.893">
  <path id="icon-sketch" d="M2.115,12.682.633,14.677H7.884L8.436,4.2ZM31.663,3.348l-10.3-1.1L32.232,14.044l-.569-10.7ZM8.9,17.176,8,15.414H.7L18.724,36.381Zm.16-2.5H31.815l-6.53-7.091L20.446,2.33Zm23.819.729L22.153,36.381,40.164,15.414H32.881Zm.312-10.191L32.44,4.2l.072,1.386L33,14.677h7.235ZM9.005,7.177l-.369,6.858L19.517,2.25l-10.3,1.1Zm23.05,8.228H8.821l3.4,6.642,8.228,16.1L32.055,15.406Z" transform="translate(-0.633 -2.25)" fill="#f75965"/>
</svg>
