<svg xmlns="http://www.w3.org/2000/svg" width="26.929" height="38.893" viewBox="0 0 26.929 38.893">
  <g id="icon-figma" transform="translate(1.5 1.5)">
    <path id="Path_231" data-name="Path 231" d="M7.5,8.982A5.982,5.982,0,0,1,13.482,3h5.982V14.964H13.482A5.982,5.982,0,0,1,7.5,8.982Z" transform="translate(-7.5 -3)" fill="none" stroke="#000" stroke-linecap="round" stroke-linejoin="round" stroke-width="3"/>
    <path id="Path_232" data-name="Path 232" d="M18,3h5.982a5.982,5.982,0,0,1,0,11.964H18Z" transform="translate(-6.036 -3)" fill="none" stroke="#000" stroke-linecap="round" stroke-linejoin="round" stroke-width="3"/>
    <path id="Path_233" data-name="Path 233" d="M18,19.482a5.982,5.982,0,1,1,5.982,5.982A5.982,5.982,0,0,1,18,19.482Z" transform="translate(-6.036 -1.535)" fill="none" stroke="#000" stroke-linecap="round" stroke-linejoin="round" stroke-width="3"/>
    <path id="Path_234" data-name="Path 234" d="M7.5,29.982A5.982,5.982,0,0,1,13.482,24h5.982v5.982a5.982,5.982,0,1,1-11.964,0Z" transform="translate(-7.5 -0.071)" fill="none" stroke="#000" stroke-linecap="round" stroke-linejoin="round" stroke-width="3"/>
    <path id="Path_235" data-name="Path 235" d="M7.5,19.482A5.982,5.982,0,0,1,13.482,13.5h5.982V25.464H13.482A5.982,5.982,0,0,1,7.5,19.482Z" transform="translate(-7.5 -1.535)" fill="none" stroke="#000" stroke-linecap="round" stroke-linejoin="round" stroke-width="3"/>
  </g>
</svg>
