<svg xmlns="http://www.w3.org/2000/svg" width="34.561" height="27.359" viewBox="0 0 34.561 27.359">
  <path id="icon-ui" d="M15.272,4.32C6.177,4.32.72,11.616.72,15.264s1.819,6.384,5.457,6.384,5.458.912,5.458,3.648A6.225,6.225,0,0,0,18,31.679c11.824,0,17.28-6.384,17.28-12.767C35.28,7.968,26.184,4.32,15.272,4.32ZM13,7.968a2.28,2.28,0,1,1-2.274,2.28A2.277,2.277,0,0,1,13,7.968Zm7.275,0A2.28,2.28,0,1,1,18,10.248a2.277,2.277,0,0,1,2.273-2.28Zm7.276,3.648a2.28,2.28,0,1,1-2.273,2.28A2.277,2.277,0,0,1,27.549,11.616ZM6.632,13.44a2.28,2.28,0,1,1-2.274,2.279A2.275,2.275,0,0,1,6.632,13.44ZM18,22.56A2.736,2.736,0,1,1,15.272,25.3,2.731,2.731,0,0,1,18,22.56Z" transform="translate(-0.72 -4.32)" fill="none"/>
</svg>
