<svg xmlns="http://www.w3.org/2000/svg" width="57.204" height="40" viewBox="0 0 57.204 40">
  <path id="Icon-behance" d="M23.04,23.225a8.482,8.482,0,0,0,4.807-8.2C27.847,7.207,22.623,5.3,16.6,5.3H0V44.559H17.062c6.4,0,12.4-3.423,12.4-11.4,0-4.929-2.1-8.574-6.426-9.936ZM7.736,12H15c2.791,0,5.3.875,5.3,4.486,0,3.334-1.956,4.675-4.717,4.675H7.736V12Zm8.273,25.888H7.736V27.079h8.432c3.406,0,5.561,1.584,5.561,5.605C21.73,36.65,19.157,37.891,16.009,37.891Zm35.6-26.663H37.341V7.362H51.613v3.866ZM57.2,30.757c0-8.408-4.409-15.42-12.4-15.42-7.766,0-13.04,6.513-13.04,15.043,0,8.851,5,14.921,13.04,14.921,6.088,0,10.031-3.057,11.927-9.56H50.55c-.665,2.426-3.406,3.711-5.532,3.711-4.1,0-6.257-2.681-6.257-7.233H57.144C57.174,31.754,57.2,31.256,57.2,30.757ZM38.772,27.3c.228-3.733,2.453-6.07,5.81-6.07,3.516,0,5.283,2.3,5.581,6.07Z" transform="translate(0 -5.302)" />
</svg>
