<svg id="LogoLight  " xmlns="http://www.w3.org/2000/svg" width="200" height="400" viewBox="0 0 288.679 366">

    <defs>
    <filter id="glow">
        <fegaussianblur class="blur" result="coloredBlur" stddeviation="1.5"></fegaussianblur>
        <femerge>
            <femergenode in="coloredBlur"></femergenode>
            <femergenode in="coloredBlur"></femergenode>
            <femergenode in="coloredBlur"></femergenode>
            <femergenode in="SourceGraphic"></femergenode>
        </femerge>
    </filter>
    </defs>

    <path filter="url(#glow)" id="path13900-7-8-3" d="M277.578,12.324a54.127,54.127,0,0,0-54.127,54.127,54.3,54.3,0,0,0,8.9,30.889c.442,1.142.987,2.48,1.872,4.507q1.228,2.412,2.211,4.938t1.706,5.134a53.939,53.939,0,0,1,1.185,5.28c1.346,6.824,1.372,12.7,1.4,19.178,0,19.929-17.558,38.57-37.486,38.571-5.168-.014-7.69.1-14.52-4.19-7.418-5.014-9.082-15.082-9.1-23.888a35.936,35.936,0,0,1,8.864-23.674c-.286-.373-.536-.723-.83-1.1-18.045,7.728-33.844,19.567-47.213,33.55C122.331,178.2,113.05,203.753,113,232.695a144.34,144.34,0,0,0,288.679,0c0-46.127-25.458-83.606-53.972-114.3-32.478-37.541-62.978-57.163-69.4-73.993a53.925,53.925,0,0,1-1.838-10.649q-.135-1.912-.135-3.83a54.085,54.085,0,0,1,2.418-16q.265-.764.554-1.52c-.575-.042-1.151-.069-1.726-.086Z" transform="translate(-113 -12.324)" fill="#f75965" />
    <path id="path1673-9-7-3-7-5-5-4-4-5-3-8-8-4-8-8-9" d="M243.9,46.857a18.042,18.042,0,0,1,11.016,3.766,144.34,144.34,0,0,1,42.563,25.456Q291.306,81.852,285.4,87.9c.042.122.087.243.132.363q.352.831.785,1.624t.941,1.537q.51.744,1.093,1.435a17.8,17.8,0,0,0,2.584,2.51q.707.56,1.466,1.049a17.989,17.989,0,0,0,3.212,1.634c.2.069.392.133.59.2q5.879-6.133,11.479-12.525a144.336,144.336,0,0,1,24.9,34.861,18.042,18.042,0,0,1,7,14.255c-.015.564-.042,1.127-.1,1.688l.029.083-.049.069a18.043,18.043,0,0,1-10.918,14.783,90.212,90.212,0,0,1-54.433-22.889,90.212,90.212,0,0,0,49.641,28.789,378.884,378.884,0,0,1-112.1,98.714,10.869,10.869,0,0,1-8.805.769,144.342,144.342,0,0,1-73.9-73.184c-.754-9.192-.464-10.431,1.323-12.868q1.691-2.691,3.427-5.353h0c33.913-49.623,50.731-65.873,81.141-94.193q2.706-2.338,5.456-4.625a90.212,90.212,0,0,0,28.746,49.467,90.211,90.211,0,0,1-22.889-54.433,18.042,18.042,0,0,1,17.739-14.8Zm23.575,23.163a90.21,90.21,0,0,0,5.108,22.411,144.348,144.348,0,0,0,15.921,20.48,54.131,54.131,0,0,1-6.149-12.435,90.211,90.211,0,0,0,38.83,16.091,90.211,90.211,0,0,1-53.71-46.548Z" transform="translate(-71.444 79.884)" fill="#ede3f2" />
    <path id="path3993-3-7-9-0-0-8-2-60-18" d="M177.354,94.448a36.087,36.087,0,0,0,7.731,8.2,378.884,378.884,0,0,1-33,34.7q-12,11.389-24.963,21.7-.212-.092-.422-.189-.8-.41-1.565-.9t-1.466-1.049q-.707-.561-1.355-1.19t-1.23-1.32q-.582-.69-1.092-1.435-.43-.64-.8-1.315,10.916-13.189,22.988-25.352a378.9,378.9,0,0,1,35.176-31.846Z" transform="translate(-96.47 206.958)" fill="#4c3857" />
    <path id="path1673-9-7-3-1-28-2-6-9-0-4-5-9-2-0-0-5-4-8" d="M224.624,45.578A312.59,312.59,0,0,1,199.156,79.7q-8.786,10.471-18.463,20.145-.245-.077-.487-.162-.694-.269-1.358-.607t-1.291-.741q-.626-.4-1.209-.866t-1.119-.982q-.533-.519-1.013-1.089t-.9-1.183q-.42-.614-.777-1.268t-.647-1.34q-.056-.149-.109-.3,9.379-10.022,19.609-19.192a312.567,312.567,0,0,1,33.234-26.54Z" transform="translate(43.956 76.469)" fill="#4a3655" />
    <path id="path1673-9-7-3-7-5-5-4-4-5-3-6-9-9-8-3-6-7" d="M275.132,70.674q.016.284.022.568-.008.846-.1,1.688l.029.083-.048.069a18.042,18.042,0,0,1-10.918,14.783A90.212,90.212,0,0,1,233.9,80.417a234.547,234.547,0,0,0,41.229-9.742Zm-45,11.521a90.211,90.211,0,0,0,29.2,11.57,378.888,378.888,0,0,1-106.639,95.143A234.55,234.55,0,0,0,230.127,82.195Z" transform="translate(-7.019 143.478)" fill="#f2b3be" />
</svg>
