<svg xmlns="http://www.w3.org/2000/svg" width="289.385" height="364.559" viewBox="0 0 289.385 364.559">
  <defs>
    <style>
      .cls-1 {
        fill: none;
        stroke: #f75965;
        stroke-width: 2px;
      }

      .cls-2 {
        fill: #ede3f2;
      }

      .cls-3 {
        fill: #4c3857;
      }

      .cls-4 {
        fill: #4a3655;
      }

      .cls-5 {
        fill: #f2b3be;
      }
    </style>
  </defs>
  <g id="Logo" transform="translate(2 2.012)">
    <path id="path13900-7-8-3" class="cls-1" d="M275.7,12.324a53.509,53.509,0,0,0-53.509,53.509,53.683,53.683,0,0,0,8.8,30.537c.437,1.129.975,2.452,1.851,4.456q1.214,2.385,2.186,4.882t1.686,5.076a53.331,53.331,0,0,1,1.171,5.22c1.331,6.746,1.356,12.551,1.381,18.959,0,19.7-17.357,38.13-37.059,38.131-5.109-.014-7.6.1-14.354-4.142-7.333-4.956-8.978-14.91-8.994-23.615a35.525,35.525,0,0,1,8.762-23.4c-.283-.369-.53-.715-.821-1.09-17.839,7.64-33.458,19.344-46.674,33.167-17.9,22.3-27.078,47.558-27.128,76.17a142.692,142.692,0,0,0,285.385,0c0-45.6-25.167-82.652-53.356-112.993-32.108-37.112-62.26-56.51-68.609-73.148A53.312,53.312,0,0,1,274.6,33.511q-.133-1.89-.134-3.786a53.466,53.466,0,0,1,2.391-15.813q.262-.755.548-1.5c-.569-.041-1.137-.068-1.707-.085Z" transform="translate(-113 -12.324)"/>
    <path id="path1673-9-7-3-7-5-5-4-4-5-3-8-8-4-8-8-9" class="cls-2" d="M242.579,46.857a17.836,17.836,0,0,1,10.89,3.723,142.694,142.694,0,0,1,42.077,25.166q-6.1,5.707-11.935,11.681c.041.12.086.24.131.359q.348.821.776,1.605t.931,1.52q.5.735,1.08,1.418a17.59,17.59,0,0,0,2.555,2.481q.7.554,1.449,1.037a17.786,17.786,0,0,0,3.175,1.616c.193.068.388.132.583.194q5.812-6.063,11.348-12.382a142.687,142.687,0,0,1,24.614,34.464,17.836,17.836,0,0,1,6.918,14.092c-.015.557-.041,1.115-.094,1.669l.029.082-.048.068a17.837,17.837,0,0,1-10.794,14.614,89.183,89.183,0,0,1-53.812-22.628A89.183,89.183,0,0,0,321.527,156.1a374.56,374.56,0,0,1-110.819,97.587,10.745,10.745,0,0,1-8.7.76A142.7,142.7,0,0,1,128.947,182.1c-.746-9.087-.459-10.312,1.308-12.721q1.672-2.66,3.388-5.292h0c33.526-49.057,50.153-65.121,80.215-93.118q2.675-2.312,5.393-4.573a89.183,89.183,0,0,0,28.418,48.9,89.181,89.181,0,0,1-22.628-53.812,17.836,17.836,0,0,1,17.537-14.626Zm23.306,22.9a89.178,89.178,0,0,0,5.05,22.156,142.7,142.7,0,0,0,15.739,20.246A53.51,53.51,0,0,1,280.6,99.866a89.182,89.182,0,0,0,38.387,15.907,89.182,89.182,0,0,1-53.1-46.016Z" transform="translate(-72.096 78.438)"/>
    <path id="path3993-3-7-9-0-0-8-2-60-18" class="cls-3" d="M176.69,94.448a35.677,35.677,0,0,0,7.643,8.106,374.559,374.559,0,0,1-32.621,34.3q-11.865,11.259-24.678,21.45-.21-.091-.417-.187a17.835,17.835,0,0,1-1.547-.888q-.75-.482-1.449-1.037t-1.339-1.176q-.64-.622-1.216-1.305t-1.08-1.418q-.425-.633-.8-1.3,10.791-13.039,22.726-25.063a374.576,374.576,0,0,1,34.775-31.483Z" transform="translate(-96.729 203.519)"/>
    <path id="path1673-9-7-3-1-28-2-6-9-0-4-5-9-2-0-0-5-4-8" class="cls-4" d="M224.021,45.578a309.021,309.021,0,0,1-25.178,33.735q-8.686,10.352-18.252,19.915-.242-.076-.481-.16-.686-.266-1.343-.6t-1.276-.732q-.619-.4-1.2-.856a14.711,14.711,0,0,1-1.106-.97q-.527-.513-1-1.077t-.891-1.17q-.415-.607-.768-1.254t-.64-1.325q-.056-.147-.108-.3,9.272-9.908,19.385-18.973a309,309,0,0,1,32.855-26.237Z" transform="translate(41.494 75.077)"/>
    <path id="path1673-9-7-3-7-5-5-4-4-5-3-6-9-9-8-3-6-7" class="cls-5" d="M273.735,70.674q.015.28.022.561-.008.836-.094,1.669l.029.082-.048.068A17.836,17.836,0,0,1,262.85,87.669a89.182,89.182,0,0,1-29.874-7.363,231.873,231.873,0,0,0,40.759-9.631ZM229.244,82.063A89.181,89.181,0,0,0,258.113,93.5a374.565,374.565,0,0,1-105.422,94.057A231.873,231.873,0,0,0,229.244,82.063Z" transform="translate(-8.681 139.423)"/>
  </g>
</svg>
