<svg xmlns="http://www.w3.org/2000/svg" width="449.669" height="448.817" viewBox="0 0 449.669 448.817">
    <defs>
    <filter id="glow">
        <fegaussianblur class="blur" result="coloredBlur" stddeviation="4"></fegaussianblur>
        <femerge>
            <femergenode in="coloredBlur"></femergenode>
            <femergenode in="coloredBlur"></femergenode>
            <femergenode in="coloredBlur"></femergenode>
            <femergenode in="SourceGraphic"></femergenode>
        </femerge>
    </filter>
    </defs>
    <g id="MarshMallow" transform="translate(0.467 0.501)">
        <path filter="url(#glow)" pathLength="1" id="path1673-9-7-3-7-5-5-4-4-5-3-8-8-4-8-8-9" d="M245.242,0a38.364,38.364,0,0,1,23.423,8.007,306.923,306.923,0,0,1,90.5,54.129c13.5,11.277,7.747,6.23,21.709,20.5a306.914,306.914,0,0,1,52.944,74.128A38.365,38.365,0,0,1,448.7,187.075c-.031,1.2-.088,2.4-.2,3.59l.062.177-.1.147a38.366,38.366,0,0,1-23.216,31.434A191.825,191.825,0,0,1,309.5,173.752a191.825,191.825,0,0,0,105.555,61.217,805.648,805.648,0,0,1-238.363,209.9c-4.2,2.592-12.613,4.2-18.723,1.635A306.926,306.926,0,0,1,.828,290.89c-1.6-19.545-.987-22.181,2.814-27.362q3.6-5.722,7.287-11.383h0C83.045,146.628,118.807,112.075,183.469,51.856q5.754-4.972,11.6-9.835a191.825,191.825,0,0,0,61.125,105.186A191.822,191.822,0,0,1,207.524,31.462,38.365,38.365,0,0,1,245.244,0Zm50.13,49.254a191.819,191.819,0,0,0,10.862,47.655,306.939,306.939,0,0,0,33.853,43.548,115.1,115.1,0,0,1-13.074-26.441,191.824,191.824,0,0,0,82.568,34.215A191.823,191.823,0,0,1,295.371,49.254Z" transform="translate(0 0)" fill="none" stroke="#f75965" stroke-width="1" />
    </g>
</svg>
