<svg xmlns="http://www.w3.org/2000/svg" width="371.982" height="623.221" viewBox="0 0 371.982 623.221">
  <g id="UI_UX" transform="translate(-48.58 -253.779)">
    <path id="Path_250" data-name="Path 250" d="M0,0H196.765V184.56H0Z" transform="translate(48.58 382.183)" fill="#403c40"/>
    <path id="Path_246" data-name="Path 246" d="M904.172,156.03v52.546H841.58v3.091h65.683V156.03Z" transform="translate(-793 226.153)" fill="#ff5252"/>
    <path id="Path_247" data-name="Path 247" d="M1051.651,371.413l5.31-7.55v-5.371l-9.087,12.92ZM1030.091,316.1l-28.444,40.453,21.134,14.86h5.371l-22.2-15.609,24.89-35.4,26.12,18.368v-3.779Z" transform="translate(-811.616 195.329)" fill="#ff5252"/>
    <path id="Path_248" data-name="Path 248" d="M940.683,304.86l-16.39,16.39,16.39,16.39,16.39-16.39ZM928.66,321.25l12.024-12.024,12.024,12.024-12.024,12.024Z" transform="translate(-810.972 186.903)" fill="#ff5252"/>
    <path id="Path_259" data-name="Path 259" d="M0,0H281.42V368.678H0Z" transform="translate(130 508.322)" fill="#ede3f2"/>
    <path id="Path_254" data-name="Path 254" d="M358.42,247.755v8.462a36.917,36.917,0,0,1-10.036-14.9c-3.747-10.039-3.628-21.61-3.509-32.8.136-13.3.271-25.852-6.171-34.025-7.086-8.973-18.428-7.707-29.4-6.485-1.288.133-2.577.289-3.848.422-11,1.088-23.26-2.554-29.21-12.393h7.425c5.442,4.8,13.766,6.485,21.412,5.73,1.238-.111,2.509-.266,3.781-.4,11.545-1.288,24.633-2.754,33.363,8.329,8.036,10.172,7.883,24.786,7.731,38.911-.119,10.416-.22,21.166,3,29.783a31,31,0,0,0,5.459,9.373Z" transform="translate(53 352.292)" fill="#ff5252"/>
    <path id="Path_255" data-name="Path 255" d="M358.42,306.277v9.905a39.984,39.984,0,0,0-4.137-5.841c-8.748-10.105-21.31-12.326-33.448-14.5-1.577-.267-3.119-.555-4.662-.844-19.682-3.709-31.889-12.571-37.3-27.029-3.747-10.039-3.628-21.61-3.509-32.8.136-13.3.271-25.852-6.171-34.025-7.086-8.973-18.428-7.707-29.4-6.485-1.288.133-2.577.289-3.848.422-14.139,1.4-30.363-5.019-32.584-22.365-.763-5.952.373-11.416,2.051-16.679h5.561c-1.865,5.286-3.255,10.394-2.594,15.569,1.678,13.237,15.275,17.99,27.193,16.812,1.238-.111,2.509-.267,3.781-.4,11.545-1.288,24.633-2.754,33.363,8.329,8.036,10.172,7.883,24.786,7.731,38.911-.119,10.416-.22,21.166,3,29.783C288.065,277.383,299,285.023,316.9,288.4c1.526.289,3.068.577,4.611.844,12.884,2.288,26.226,4.664,36.144,16.1Q358.038,305.778,358.42,306.277Z" transform="translate(53 352.292)" fill="#ff5252"/>
    <path id="Path_256" data-name="Path 256" d="M358.42,473.249V486.93c-6.12-8.529-11.24-20.233-15.156-34.869-.831-3.109-1.628-6.285-2.424-9.461-4.391-17.39-8.934-35.357-19.75-46.84-11.562-12.26-28.125-14.969-44.146-17.59-2.051-.333-4.1-.666-6.137-1.022-25.972-4.509-42.06-15.236-49.2-32.781-4.95-12.193-4.8-26.229-4.645-39.8.186-16.124.373-31.36-8.137-41.265-9.341-10.883-24.311-9.35-38.771-7.862-1.712.178-3.408.355-5.069.511-18.665,1.688-40.077-6.085-42.993-27.118-1.441-10.305,2.238-19.433,5.781-28.273,2.034-5.064,3.967-9.883,4.95-14.836a39.689,39.689,0,0,0-6.171-29.694h8.307a49.337,49.337,0,0,1,4.391,31.6,94.7,94.7,0,0,1-5.442,16.457c-3.238,8.04-6.273,15.635-5.2,23.409,2.238,16.035,20.157,21.81,35.872,20.388,1.644-.155,3.323-.333,5-.489,15.224-1.577,32.482-3.331,44.01,10.105,10.6,12.326,10.392,30.049,10.189,47.173-.136,12.637-.288,25.674,3.95,36.135,6.086,14.947,20.53,24.231,44.146,28.339,2,.355,4.035.689,6.069,1.022,17.021,2.776,34.6,5.641,47.672,19.522,12.257,13.015,17.089,32.093,21.734,50.549.8,3.154,1.594,6.263,2.407,9.35A121.608,121.608,0,0,0,358.42,473.249Z" transform="translate(53 352.292)" fill="#ff5252"/>
    <path id="Path_257" data-name="Path 257" d="M77,292.358c7.731,12.26,24.124,16.79,38.822,15.458,1.661-.155,3.357-.333,5.069-.511,14.461-1.488,29.43-3.021,38.771,7.862,8.51,9.905,8.324,25.141,8.137,41.265-.153,13.57-.305,27.606,4.645,39.8,7.137,17.546,23.226,28.273,49.2,32.781,2.034.355,4.086.689,6.137,1.022,16.021,2.621,32.584,5.33,44.146,17.59,10.816,11.482,15.359,29.45,19.75,46.84.8,3.176,1.594,6.352,2.424,9.461.763,2.865,1.577,5.6,2.424,8.24h7.256c-1.271-3.62-2.356-7.24-3.289-10.7-.814-3.087-1.611-6.2-2.407-9.35-4.645-18.456-9.477-37.534-21.734-50.549-13.071-13.881-30.651-16.746-47.672-19.522-2.034-.333-4.069-.666-6.069-1.022-23.615-4.109-38.059-13.392-44.146-28.339-4.238-10.461-4.086-23.5-3.95-36.135.2-17.124.407-34.847-10.189-47.173-11.528-13.437-28.786-11.682-44.01-10.105-1.678.155-3.357.333-5,.489C99.6,301.176,81.679,295.4,79.441,279.366c-1.068-7.773,1.967-15.369,5.2-23.409A94.705,94.705,0,0,0,90.088,239.5C93.275,223.642,87.9,206.074,77,196.48v10.883a39.626,39.626,0,0,1,6.561,30.227c-.983,4.953-2.916,9.772-4.95,14.836-.542,1.355-1.085,2.687-1.611,4.064Z" transform="translate(53 364.834)" fill="#ff5252"/>
    <path id="Path_258" data-name="Path 258" d="M201.486,465.573h-7.035c-.373-1.444-.729-2.909-1.1-4.375-4.391-17.39-8.934-35.357-19.75-46.84-11.562-12.26-28.125-14.969-44.146-17.59-2.051-.333-4.1-.666-6.137-1.022C100.395,391.77,85.154,382.931,77,368.85v-22.1a51.543,51.543,0,0,0,3.136,12.659c6.086,14.947,20.53,24.231,44.146,28.339,2,.355,4.035.688,6.069,1.022,17.021,2.776,34.6,5.641,47.672,19.522,12.257,13.015,17.089,32.093,21.734,50.549C200.333,461.108,200.893,463.352,201.486,465.573Z" transform="translate(53 411.427)" fill="#ff5252"/>
    <path id="Path_476" data-name="Path 476" d="M0,0H217.248V199.233H0Z" transform="matrix(0.017, 1, -1, 0.017, 416.771, 253.779)" fill="#706970"/>
    <path id="Path_477" data-name="Path 477" d="M540.762,168.378a54.541,54.541,0,0,1-82.32,46.932V156.03h80.911A54.2,54.2,0,0,1,540.762,168.378Z" transform="matrix(0.017, 1, -1, 0.017, 564.776, -207.316)" fill="#ff5252"/>
    <ellipse id="Ellipse_142" data-name="Ellipse 142" cx="23.667" cy="23.667" rx="23.667" ry="23.667" transform="matrix(0.017, 1, -1, 0.017, 292.767, 296.342)" fill="#ff5252"/>
    <ellipse id="Ellipse_98" data-name="Ellipse 98" cx="32.928" cy="32.928" rx="32.928" ry="32.928" transform="matrix(0.017, 1, -1, 0.017, 395.052, 394.997)" fill="#ff5252"/>
    <ellipse id="Ellipse_100" data-name="Ellipse 100" cx="6.174" cy="6.174" rx="6.174" ry="6.174" transform="matrix(0.017, 1, -1, 0.017, 279.759, 393.98)" fill="#ff5252"/>
    <path id="Path_557" data-name="Path 557" d="M717.207,389.472v27.989H683.343a23.669,23.669,0,0,1,33.864-27.989Z" transform="matrix(0.017, 1, -1, 0.017, 626.124, -249.938)" fill="#ff5252"/>
  </g>
</svg>
