<svg xmlns="http://www.w3.org/2000/svg" xmlns:xlink="http://www.w3.org/1999/xlink" width="174.697" height="172.283" viewBox="0 0 174.697 172.283">
  <defs>
    <linearGradient id="linear-gradient" y1="0.5" x2="1" y2="0.5" gradientUnits="objectBoundingBox">
      <stop offset="0" stop-color="#f75965"/>
      <stop offset="1" stop-color="#a02b5d"/>
    </linearGradient>
  </defs>
  <path id="Comet" d="M120.3,172.058a43.232,43.232,0,0,1-29.481-15.753L1.924,48.058a2.188,2.188,0,0,1,.224-3.151,2.187,2.187,0,0,1,3.151.225L94.418,153.6a38.959,38.959,0,0,0,26.33,14.178,39.856,39.856,0,0,0,28.581-8.777,38.952,38.952,0,0,0,5.4-54.911L111.746,51.884a2.234,2.234,0,1,1,3.376-2.926l42.984,52.211a43.533,43.533,0,0,1-5.851,61.213,43.029,43.029,0,0,1-27.68,9.9A27.233,27.233,0,0,1,120.3,172.058Zm-66.305-3.424a10.675,10.675,0,0,1-3.008-7.522,12.749,12.749,0,0,1,3.438-7.564,10.612,10.612,0,0,1,7.564-3.094,9.891,9.891,0,0,1,7.35,3.309,11.221,11.221,0,0,1,2.175,3.508,11.44,11.44,0,0,1,.79,4.185,9.649,9.649,0,0,1-.844,3.933,10.562,10.562,0,0,1-2.294,3.288,10.714,10.714,0,0,1-7.521,3.094A10.584,10.584,0,0,1,53.992,168.635Zm4.9-10.273a3.886,3.886,0,0,0-1.031,2.751,3.782,3.782,0,1,0,3.782-3.782A3.89,3.89,0,0,0,58.892,158.362Zm-39.445-3.888a10.667,10.667,0,1,1,7.538,3.12A10.591,10.591,0,0,1,19.447,154.474Zm2.77-7.539a5.049,5.049,0,1,0,5.049-5.049A5.054,5.054,0,0,0,22.217,146.935Zm86.6,6.3a31.77,31.77,0,0,1-11.026-8.411,29.927,29.927,0,0,1-6.977-22.73,31.8,31.8,0,0,1,20.411-26.26,29.4,29.4,0,0,1,10.238-1.827,31.543,31.543,0,0,1,24.262,11.433,29.935,29.935,0,0,1,6.977,22.73A31.252,31.252,0,0,1,141.453,149.1a29.347,29.347,0,0,1-9.284,5.261,31.555,31.555,0,0,1-23.349-1.126Zm-3.825-48.469a26.327,26.327,0,0,0-9.451,17.778A27.2,27.2,0,0,0,101.17,141.9a26.68,26.68,0,0,0,37.357,3.6,26.337,26.337,0,0,0,9.451-17.779,26.052,26.052,0,0,0-5.85-19.354,26.339,26.339,0,0,0-17.779-9.451,11.018,11.018,0,0,0-2.7-.225A26.654,26.654,0,0,0,104.995,104.77ZM38.381,124.124a2.475,2.475,0,1,1,2.475,2.475A2.475,2.475,0,0,1,38.381,124.124ZM11.375,108.371a2.475,2.475,0,1,1,2.475,2.475A2.476,2.476,0,0,1,11.375,108.371Zm60.988-.9L.573,20.152A2.187,2.187,0,0,1,.8,17a2.187,2.187,0,0,1,3.151.225L75.738,104.77a2.188,2.188,0,0,1-.224,3.151,3.2,3.2,0,0,1-1.351.45A2.777,2.777,0,0,1,72.363,107.47Zm14.4-18L47.608,41.532a2.234,2.234,0,0,1,3.376-2.926l39.157,48.16a2.187,2.187,0,0,1-.225,3.151,3.2,3.2,0,0,1-1.35.45A2.779,2.779,0,0,1,86.766,89.466Zm24.306-10.577L49.408,3.724A2.187,2.187,0,0,1,49.633.573,2.187,2.187,0,0,1,52.784.8l61.662,75.39a2.187,2.187,0,0,1-.225,3.151,3.192,3.192,0,0,1-1.35.45A2.775,2.775,0,0,1,111.071,78.889ZM156.5,70.756a10.665,10.665,0,1,1,7.538,3.121A10.588,10.588,0,0,1,156.5,70.756Zm2.489-7.538a5.049,5.049,0,1,0,5.049-5.049A5.054,5.054,0,0,0,158.99,63.218ZM148.013,43.38a11.012,11.012,0,0,1-2.961-7.564,10.52,10.52,0,0,1,3.058-7.454,10.078,10.078,0,0,1,7.189-3.044c.193,0,.388.005.581.017a10.213,10.213,0,0,1,7.529,3.254,11.014,11.014,0,0,1,2.961,7.565,10.274,10.274,0,0,1-3.13,7.4,10.929,10.929,0,0,1-7.7,3.085A10.214,10.214,0,0,1,148.013,43.38Zm3.807-7.564a3.859,3.859,0,0,0,3.722,4.057,4.055,4.055,0,0,0,4.06-3.72,3.895,3.895,0,0,0-7.782-.338ZM107.665,27.1a10.665,10.665,0,1,1,7.539,3.121A10.591,10.591,0,0,1,107.665,27.1Zm2.49-7.257a5.049,5.049,0,1,0,5.049-5.049A4.883,4.883,0,0,0,110.155,19.839Zm46.826-8.464a2.475,2.475,0,1,1,2.475,2.475A2.475,2.475,0,0,1,156.981,11.375Z" fill="url(#linear-gradient)"/>
</svg>
