<svg xmlns="http://www.w3.org/2000/svg" xmlns:xlink="http://www.w3.org/1999/xlink" width="997" height="996.999" viewBox="0 0 997 996.999">
  <defs>
    <linearGradient id="linear-gradient" x1="0.046" x2="1" y2="1.046" gradientUnits="objectBoundingBox">
      <stop offset="0" stop-color="#ff9a3b"/>
      <stop offset="1" stop-color="#ff48fa"/>
    </linearGradient>
  </defs>
  <path id="Cosmic" d="M677.646,837.324c0-88.04,71.634-159.675,159.674-159.675S997,749.283,997,837.324,925.366,997,837.321,997,677.646,925.369,677.646,837.324Zm38.943,0A120.732,120.732,0,1,0,837.321,716.592,120.868,120.868,0,0,0,716.589,837.324ZM98.9,873.116a19.357,19.357,0,0,1-5.683-3.923c-37.946-37.941-27.986-113.06,28.8-217.237a19.471,19.471,0,0,1,34.192,18.639c-34.79,63.828-51.3,118.7-45.284,150.558a95.139,95.139,0,0,1,33.968-34.77,94.24,94.24,0,0,1,127.5,29.98,820.526,820.526,0,0,0,83.922-49.242A312.056,312.056,0,0,1,170.387,482c0-171.824,139.789-311.619,311.617-311.619a309.738,309.738,0,0,1,172.3,52.1,313.718,313.718,0,0,1,113.04,134.351c16.2-24.337,30.563-48.15,42.7-70.787,43.09-80.334,55.812-144.281,33.205-166.893-7.353-7.348-19.1-11.077-34.9-11.077-20.389,0-47.158,6.4-77.4,18.5a19.472,19.472,0,1,1-14.466-36.156c35.1-14.048,65.952-21.171,91.674-21.171,26.72,0,47.791,7.527,62.637,22.368,37.358,37.363,28.225,110.962-26.421,212.84-16.655,31.052-37.2,64.013-61.061,97.966a311.706,311.706,0,0,1,10.314,79.586c0,171.829-139.794,311.619-311.617,311.619a311.365,311.365,0,0,1-80.159-10.474c-40.752,28.534-79.61,52.014-115.478,69.775A94.382,94.382,0,1,1,98.9,873.116Zm38.763-5.628a55.443,55.443,0,1,0,55.443-55.443A55.5,55.5,0,0,0,137.666,867.488ZM608.953,607.35c-53.609,53.609-108.992,102.3-164.615,144.71a274.645,274.645,0,0,0,37.672,2.617c150.348,0,272.67-122.323,272.67-272.676a275.952,275.952,0,0,0-2.537-37.138C710.328,499.479,662.153,554.15,608.953,607.35ZM209.335,482A272.68,272.68,0,0,0,394.852,740.4C456.4,695.844,520.908,640.311,581.416,579.813c60.039-60.045,115.064-123.843,159.131-184.5A272.608,272.608,0,0,0,482,209.331C331.652,209.331,209.335,331.653,209.335,482ZM852.9,445.925a72.048,72.048,0,1,1,72.048,72.049A72.129,72.129,0,0,1,852.9,445.925Zm38.943,0a33.105,33.105,0,1,0,33.105-33.106A33.142,33.142,0,0,0,891.847,445.925ZM263.652,482.007A218.307,218.307,0,0,1,395.42,281.5a19.472,19.472,0,0,1,15.454,35.748A179.392,179.392,0,0,0,302.6,482.007a19.474,19.474,0,0,1-38.948,0ZM481.611,302.6a19.474,19.474,0,0,1,0-38.948H482a19.474,19.474,0,0,1,0,38.948ZM0,120.732A120.729,120.729,0,1,1,120.732,241.459,120.871,120.871,0,0,1,0,120.732Zm38.943,0a81.786,81.786,0,1,0,81.789-81.789A81.88,81.88,0,0,0,38.943,120.732Zm599.865,30.174a19.471,19.471,0,0,1,7.507-26.5l.254-.14h.005c.224-.13.424-.239.583-.329a19.474,19.474,0,0,1,18.848,34.083l-.324.179c-.14.08-.269.15-.379.209a19.455,19.455,0,0,1-26.5-7.507Z" opacity="0.06" fill="url(#linear-gradient)"/>
</svg>
