<svg xmlns="http://www.w3.org/2000/svg" width="358.317" height="451.648" viewBox="0 0 358.317 451.648">
  <path id="flame" d="M315,12.325a66.433,66.433,0,0,0-66.434,66.434c-.068,14.714,3.973,27.547,10.926,37.912.542,1.4,1.211,3.044,2.3,5.532q1.508,2.961,2.714,6.061t2.094,6.3a66.206,66.206,0,0,1,1.454,6.481c1.652,8.375,1.684,15.582,1.715,23.539,0,24.46-21.55,47.34-46.01,47.341-6.343-.017-9.438.122-17.821-5.143-9.1-6.154-11.146-18.511-11.167-29.319a44.106,44.106,0,0,1,10.879-29.057c-.351-.458-.658-.888-1.019-1.354-22.148,9.485-41.539,24.016-57.947,41.178C124.453,215.92,113.062,247.278,113,282.8a177.158,177.158,0,0,0,354.317,0c0-56.615-31.246-102.616-66.243-140.285-39.863-46.076-77.3-70.16-85.181-90.816a66.192,66.192,0,0,1-2.256-13.07q-.166-2.347-.166-4.7A66.379,66.379,0,0,1,316.438,14.3q.326-.937.68-1.865c-.706-.051-1.412-.085-2.119-.106Z" transform="translate(-111 -10.31)" fill="#ff6969" stroke="#f75965" stroke-width="4"/>
</svg>
