<svg xmlns="http://www.w3.org/2000/svg" width="41.564" height="40" viewBox="0 0 41.564 40">
  <path id="Icon-github" d="M13.9,32.77c0,.165-.193.3-.436.3-.277.025-.469-.108-.469-.3,0-.165.193-.3.436-.3C13.684,32.448,13.9,32.58,13.9,32.77ZM11.3,32.4c-.059.165.109.356.36.405a.4.4,0,0,0,.52-.165c.05-.165-.109-.356-.36-.43A.433.433,0,0,0,11.3,32.4Zm3.7-.141c-.243.058-.411.215-.385.405.025.165.243.273.494.215s.411-.215.385-.38S15.243,32.233,15,32.258ZM20.514.563C8.891.563,0,9.272,0,20.744A20.758,20.758,0,0,0,14.2,40.529c1.073.19,1.45-.463,1.45-1,0-.513-.025-3.342-.025-5.078,0,0-5.866,1.241-7.1-2.465,0,0-.955-2.407-2.33-3.027,0,0-1.919-1.3.134-1.274A4.434,4.434,0,0,1,9.57,29.818c1.835,3.193,4.911,2.275,6.109,1.729a4.575,4.575,0,0,1,1.341-2.787c-4.684-.513-9.411-1.183-9.411-9.14a6.227,6.227,0,0,1,1.978-4.872A7.72,7.72,0,0,1,9.8,9.131c1.751-.538,5.782,2.233,5.782,2.233a20.048,20.048,0,0,1,10.525,0s4.031-2.779,5.782-2.233a7.717,7.717,0,0,1,.218,5.616,6.392,6.392,0,0,1,2.162,4.872c0,7.982-4.936,8.619-9.62,9.14A4.858,4.858,0,0,1,26.078,32.6c0,2.787-.025,6.236-.025,6.915,0,.538.385,1.191,1.45,1A20.564,20.564,0,0,0,41.564,20.744C41.564,9.272,32.137.563,20.514.563ZM8.145,29.09c-.109.083-.084.273.059.43.134.132.327.19.436.083.109-.083.084-.273-.059-.43C8.447,29.04,8.254,28.982,8.145,29.09Zm-.905-.67c-.059.108.025.24.193.323a.251.251,0,0,0,.36-.058c.059-.108-.025-.24-.193-.323C7.433,28.312,7.3,28.337,7.24,28.42Zm2.715,2.945c-.134.108-.084.356.109.513.193.19.436.215.545.083.109-.108.059-.356-.109-.513C10.316,31.257,10.064,31.232,9.955,31.364ZM9,30.148c-.134.083-.134.3,0,.488s.36.273.469.19a.374.374,0,0,0,0-.513C9.352,30.124,9.134,30.041,9,30.148Z" transform="translate(0 -0.563)" />
</svg>
