<svg xmlns="http://www.w3.org/2000/svg" width="41.021" height="39.996" viewBox="0 0 41.021 39.996">
  <path id="icon-xd" d="M33.757.45H7.264A7.258,7.258,0,0,0,0,7.714V33.181a7.258,7.258,0,0,0,7.264,7.264H33.757a7.258,7.258,0,0,0,7.264-7.264V7.714A7.258,7.258,0,0,0,33.757.45Zm5.538,32.065a6.192,6.192,0,0,1-6.187,6.222H7.914a6.215,6.215,0,0,1-6.2-6.2V8.364a6.215,6.215,0,0,1,6.2-6.2H33.09a6.2,6.2,0,0,1,6.2,6.2ZM16.22,19.166l4.786,9.2c.085.137.034.273-.1.273H17.93a.335.335,0,0,1-.359-.222c-1.094-2.256-2.2-4.512-3.35-6.939h-.034c-1.026,2.29-2.154,4.7-3.247,6.957a.328.328,0,0,1-.308.188H7.811c-.171,0-.188-.137-.1-.239l4.683-8.922L7.862,10.432a.138.138,0,0,1,.1-.239H10.9a.269.269,0,0,1,.308.188c1.077,2.256,2.171,4.581,3.2,6.854h.034c.991-2.256,2.085-4.6,3.145-6.837.085-.137.137-.222.308-.222h2.752c.137,0,.188.1.1.239Zm5.623,2.786c0-3.982,2.649-7.093,6.854-7.093a7.58,7.58,0,0,1,.889.034V10.363a.171.171,0,0,1,.171-.171h2.7c.137,0,.171.051.171.137V26.02a12.174,12.174,0,0,0,.085,1.675c0,.1-.034.137-.137.188a10.181,10.181,0,0,1-4.376.991C24.493,28.891,21.844,26.6,21.844,21.952Zm7.743-4.376a2.585,2.585,0,0,0-.991-.171c-2.154,0-3.658,1.658-3.658,4.41,0,3.145,1.538,4.41,3.47,4.41a3.225,3.225,0,0,0,1.179-.188V17.576Z" transform="translate(0 -0.45)" fill="#f75965"/>
</svg>
