<svg xmlns="http://www.w3.org/2000/svg" width="301.761" height="299.42" viewBox="0 0 301.761 299.42">
  <g id="marshmallow_skewer" transform="translate(-810.621 -465.403)">
    <path id="marshmallow_body" d="M270.119,46.857a22.144,22.144,0,0,1,13.52,4.622,177.16,177.16,0,0,1,52.24,31.244q-7.57,7.085-14.818,14.5c.051.149.106.3.162.446q.432,1.02.964,1.993t1.156,1.887q.626.913,1.341,1.761a21.842,21.842,0,0,0,3.172,3.08q.867.688,1.8,1.288a22.078,22.078,0,0,0,3.942,2.006c.24.085.481.164.724.241q7.216-7.527,14.089-15.373a177.154,177.154,0,0,1,30.56,42.788,22.145,22.145,0,0,1,8.589,17.5c-.018.692-.051,1.384-.117,2.072l.036.1-.06.085a22.145,22.145,0,0,1-13.4,18.144,110.724,110.724,0,0,1-66.809-28.093,110.724,110.724,0,0,0,60.928,35.335A465.031,465.031,0,0,1,230.55,303.643c-2.425,1.5-7.281,2.426-10.807.944a177.161,177.161,0,0,1-90.7-89.824c-.926-11.282-.57-12.8,1.624-15.794q2.075-3.3,4.206-6.57h0c41.624-60.906,62.266-80.851,99.591-115.609q3.321-2.87,6.7-5.677a110.724,110.724,0,0,0,35.282,60.714,110.722,110.722,0,0,1-28.093-66.809A22.145,22.145,0,0,1,270.12,46.859Zm28.935,28.43a110.72,110.72,0,0,0,6.27,27.507,177.167,177.167,0,0,0,19.541,25.136,66.437,66.437,0,0,1-7.547-15.262,110.723,110.723,0,0,0,47.659,19.749,110.722,110.722,0,0,1-65.922-57.131Z" transform="translate(724.277 424.307)" fill="#ede3f2"/>
    <path id="skewer_bottom" d="M190.579,94.448a44.292,44.292,0,0,0,9.489,10.064,465.031,465.031,0,0,1-40.5,42.585q-14.731,13.978-30.639,26.631-.26-.113-.518-.232-.987-.5-1.921-1.1t-1.8-1.288q-.867-.688-1.663-1.46t-1.509-1.62q-.714-.846-1.341-1.761-.528-.785-.987-1.614,13.4-16.188,28.215-31.116a465.051,465.051,0,0,1,43.174-39.087Z" transform="translate(691.431 591.095)" fill="#4c3857"/>
    <path id="skewer_top" d="M236.639,45.578A383.665,383.665,0,0,1,205.38,87.462Q194.6,100.314,182.72,112.187q-.3-.094-.6-.2-.852-.331-1.667-.745t-1.585-.909q-.768-.494-1.484-1.062a18.267,18.267,0,0,1-1.374-1.2q-.655-.637-1.243-1.337t-1.106-1.452q-.515-.754-.953-1.557t-.795-1.644q-.069-.183-.134-.368,11.511-12.3,24.068-23.556A383.636,383.636,0,0,1,236.64,45.579Z" transform="translate(875.742 419.825)" fill="#4a3655"/>
    <path id="marshmallow_shadow" d="M302.972,70.674q.019.348.027.7-.01,1.038-.117,2.072l.036.1-.059.085a22.145,22.145,0,0,1-13.4,18.144,110.724,110.724,0,0,1-37.09-9.141,287.878,287.878,0,0,0,50.6-11.957Zm-55.238,14.14a110.722,110.722,0,0,0,35.842,14.2A465.037,465.037,0,0,1,152.691,215.79,287.88,287.88,0,0,0,247.734,84.815Z" transform="translate(808.838 507.775)" fill="#f2b3be"/>
  </g>
</svg>
