<svg xmlns="http://www.w3.org/2000/svg" width="552.529" height="731.034" viewBox="0 0 552.529 731.034">
  <g id="Mobile" transform="translate(-5.125 0)">
    <path id="Path_219" data-name="Path 219" d="M344.694,661.251l-8.387-33.073a429.48,429.48,0,0,0-45.565-16.344L289.684,627.2l-4.294-16.934c-19.2-5.482-32.265-7.9-32.265-7.9s17.649,67.1,54.661,118.393l43.124,7.573-33.5,4.832a173.753,173.753,0,0,0,14.987,15.88c53.84,49.97,113.807,72.894,133.938,51.2S459.138,720.471,405.3,670.5c-16.691-15.491-37.658-27.922-58.646-37.706Z" transform="translate(-248 -77.403)" fill="#f75965"/>
    <path id="Path_220" data-name="Path 220" d="M424.443,625.33l9.916-32.647A429.458,429.458,0,0,0,403.8,555.139l-8.851,12.611,5.077-16.716c-13.6-14.618-23.539-23.437-23.539-23.437s-19.575,66.561-14.405,129.6l33,28.773-31.177-13.181a173.751,173.751,0,0,0,4.621,21.341c20.26,70.607,59.745,121.228,88.19,113.065s35.081-72.017,14.821-142.624c-6.281-21.889-17.8-43.368-30.714-62.592Z" transform="translate(-248 -77.403)" fill="#f75965"/>
    <path id="Path_221" data-name="Path 221" d="M805.654,250.35h-4V140.8a63.4,63.4,0,0,0-63.4-63.4H506.166a63.4,63.4,0,0,0-63.4,63.4V741.779a63.4,63.4,0,0,0,63.4,63.4H738.253a63.4,63.4,0,0,0,63.4-63.4V328.326h4Z" transform="translate(-248 -77.403)" fill="#201e20"/>
    <path id="Path_222" data-name="Path 222" d="M788.16,141.247v600.09a47.351,47.351,0,0,1-47.349,47.35H507.61a47.351,47.351,0,0,1-47.35-47.349V141.247A47.351,47.351,0,0,1,507.609,93.9H535.9a22.507,22.507,0,0,0,20.83,30.99H689.69A22.507,22.507,0,0,0,710.52,93.9h30.29a47.351,47.351,0,0,1,47.35,47.349Z" transform="translate(-248 -77.403)" fill="#fff"/>
    <path id="Path_223" data-name="Path 223" d="M788.16,612.407v128.93a47.35,47.35,0,0,1-47.349,47.35H507.61a47.351,47.351,0,0,1-47.35-47.349V624.977a222.971,222.971,0,0,1,327.9-12.57Z" transform="translate(-248 -77.403)" fill="#e6e6e6"/>
    <path id="Path_224" data-name="Path 224" d="M322.174,511.167H312.75l3.141-184.1h3.142Z" fill="#e6e6e6"/>
    <path id="Path_225" data-name="Path 225" d="M578.028,288.559l15.214-23.512a352.489,352.489,0,0,0-15.608-36.537l-9.838,7.946,7.789-12.038c-7.423-14.613-13.265-23.82-13.265-23.82s-30.511,48.081-40.705,98.988l19.523,30.171L519.525,312.3a142.6,142.6,0,0,0-1.186,17.883c0,60.291,19.691,109.166,43.981,109.166S606.3,390.474,606.3,330.184c0-18.691-4.228-38.245-10.061-56.334Z" transform="translate(-248 -77.403)" fill="#f75965"/>
    <path id="Path_226" data-name="Path 226" d="M267.479,524.167h-4.571l1.524-89.288h1.523Z" fill="#e6e6e6"/>
    <path id="Path_227" data-name="Path 227" d="M519.288,456.068l7.378-11.4a170.942,170.942,0,0,0-7.57-17.72l-4.771,3.854,3.778-5.838c-3.6-7.087-6.433-11.552-6.433-11.552s-14.8,23.319-19.742,48.008l9.468,14.633-10.482-8.466a69.156,69.156,0,0,0-.575,8.673c0,29.24,9.55,52.945,21.33,52.945S533,505.5,533,476.255c0-9.065-2.051-18.549-4.88-27.322Z" transform="translate(-248 -77.403)" fill="#f75965"/>
    <path id="Path_228" data-name="Path 228" d="M386.479,524.167h-4.571l1.524-89.288h1.523Z" fill="#e6e6e6"/>
    <path id="Path_229" data-name="Path 229" d="M638.288,456.068l7.378-11.4a170.958,170.958,0,0,0-7.57-17.72l-4.771,3.854,3.778-5.838c-3.6-7.087-6.433-11.552-6.433-11.552s-14.8,23.319-19.742,48.008l9.468,14.633-10.482-8.466a69.155,69.155,0,0,0-.575,8.673c0,29.24,9.55,52.945,21.33,52.945S652,505.5,652,476.255c0-9.065-2.051-18.549-4.88-27.322Z" transform="translate(-248 -77.403)" fill="#f75965"/>
    <circle id="Ellipse_94" data-name="Ellipse 94" cx="42" cy="42" r="42" transform="translate(222 144.194)" fill="#e6e6e6"/>
  </g>
</svg>
