<svg xmlns="http://www.w3.org/2000/svg" width="40.5" height="36.001" viewBox="0 0 40.5 36.001">
  <path id="icon-web" d="M10.629,11.767l1.823.608h.328l.367-1.837a6.985,6.985,0,0,1,.226-.829L11.947,6.856l1.673-5.02A1.125,1.125,0,0,0,12.909.413L11.842.058a1.124,1.124,0,0,0-1.423.712L8.6,6.231A2.253,2.253,0,0,0,8.72,7.949l1.909,3.818Zm29.682,12.8L36.6,19a2.25,2.25,0,0,0-1.872-1H29.25L34.1,16.288a2.252,2.252,0,0,0,1.161-.887L39.03,9.747a1.125,1.125,0,0,0-.312-1.56l-.936-.624a1.125,1.125,0,0,0-1.56.312l-3.555,5.332-4.254,1.418H25.875l-.729-3.646c-.154-.771-1.221-4.229-4.9-4.229s-4.742,3.458-4.9,4.229l-.729,3.646H12.087L7.834,13.207,4.278,7.875a1.125,1.125,0,0,0-1.56-.312l-.936.624a1.125,1.125,0,0,0-.312,1.56L5.238,15.4a2.252,2.252,0,0,0,1.161.887L11.25,18H5.77A2.251,2.251,0,0,0,3.9,19L.189,24.566A1.125,1.125,0,0,0,.5,26.126l.936.624A1.125,1.125,0,0,0,3,26.438l3.375-5.062H9.681L5.4,28.219a2.249,2.249,0,0,0-.342,1.193v5.463A1.125,1.125,0,0,0,6.188,36H7.313a1.125,1.125,0,0,0,1.125-1.125V29.734L13.646,21.4c-.071.988-.146,1.976-.146,2.968A6.978,6.978,0,0,0,20.25,31.5,6.978,6.978,0,0,0,27,24.368c0-.991-.076-1.98-.146-2.968l5.209,8.334v5.141A1.125,1.125,0,0,0,33.188,36h1.125a1.125,1.125,0,0,0,1.125-1.125V29.411a2.254,2.254,0,0,0-.342-1.192l-4.277-6.844h3.309L37.5,26.438a1.125,1.125,0,0,0,1.56.312L40,26.125A1.124,1.124,0,0,0,40.311,24.566ZM28.553,6.856,27.127,9.709a6.985,6.985,0,0,1,.226.829l.367,1.837h.328l1.823-.608L31.78,7.949A2.25,2.25,0,0,0,31.9,6.231L30.081.769A1.125,1.125,0,0,0,28.658.058L27.591.413a1.126,1.126,0,0,0-.712,1.423l1.673,5.02Z" transform="translate(0 0.001)" fill="none"/>
</svg>
